<?xml version="1.0" encoding="UTF-8" standalone="no"?><svg xmlns="http://www.w3.org/2000/svg" xmlns:xlink="http://www.w3.org/1999/xlink" contentScriptType="application/ecmascript" contentStyleType="text/css" height="528px" preserveAspectRatio="none" style="width:669px;height:528px;" version="1.1" viewBox="0 0 669 528" width="669px" zoomAndPan="magnify"><defs/><g><!--MD5=[bfeb4e40a9e05244ea0843bb1cef058f]
cluster cloud--><path d="M42.8548,35.4155 C56.329,17.3035 69.5287,19.9375 81.5079,37.0557 C87.3169,17.8356 104.8127,17.8326 116.226,31.0592 C125.9938,14.6266 142.0281,14.818 151.4408,31.4375 C161.4113,10.7203 174.5106,10.7679 188.6861,27.2244 C197.5973,11.5477 211.7731,9.2915 222.0618,25.7958 C232.9502,6 249.8071,6.8105 259.8965,26.5602 C270.1881,9.061 282.7881,6.6673 295.1937,24.4449 C308.243,10.0278 321.3151,8.627 329.7241,29.0447 C339.3968,9.3446 353.2694,9.7336 365.7072,26.3014 C377.3891,10.9834 390.8201,12.3759 399.5948,29.352 C409.726,10.3298 423.4252,13.8255 434.8636,27.9617 C448.0077,10.3089 460.4559,14.0145 472.139,29.6001 C483.4342,12.4251 502.2446,15.0136 511.6633,31.7848 C527.7175,14.95 540.4373,17.1333 548.02,39.6179 C550.5604,39.4541 550.9459,40.7026 550.5037,42.8387 C570.1926,54.6845 566.926,66.7419 550.8448,78.9257 C567.9462,90.8499 569.6949,102.9191 552.6078,116.4497 C572.3932,128.3718 575.7715,147.0981 553.5826,159.9606 C567.5678,168.5254 571.7135,182.5825 555.1632,192.6249 C576.136,201.2667 578.1345,219.5941 558.1828,231.4211 C574.9972,244.7381 576.793,257.1862 557.7619,270.1133 C575.9868,284.3705 574.1824,302.1179 553.2554,312.1808 C571.234,323.685 569.4772,336.0166 554.891,348.9687 C570.7914,360.8373 570.7625,378.4163 551.2249,386.8559 C568.0531,402.9128 562.8533,420.4835 541.02,426.6179 C543.3466,425.5412 544.6599,426.2123 545.1501,428.7287 C532.5758,447.871 518.8116,448.6615 505.8662,429.1054 C497.7568,446.5189 480.8718,447.8171 471.0819,430.8033 C463.0203,447.586 448.487,450.9176 436.2887,435.2368 C423.2361,452.7113 410.2636,452.1846 399.4093,433.0239 C392.8159,449.3595 377.306,452.6087 366.2624,437.753 C355.0751,452.2156 343.8188,450.3177 333.6946,436.5275 C323.5054,458.5587 309.2474,456.7599 294.8455,440.8398 C281.9077,453.3728 270.2432,455.0124 261.3775,436.456 C246.7734,455.5273 233.8375,450.3272 222.0734,433.3587 C211.0789,451.4735 198.0361,449.3876 185.7514,434.7914 C177.3822,452.8548 161.9263,452.4345 152.9957,435.314 C139.5539,455.5975 122.9533,451.3904 113.6828,431.2567 C103.2385,445.4093 90.9045,448.1383 81.2476,430.4544 C62.5273,446.8089 44.4731,442.797 35.02,419.6179 C37.5743,418.5383 39.4242,420.0918 38.8922,422.7853 C17.7389,413.3158 21.8592,397.8221 36.0345,385.635 C20.2709,371.5992 21.0062,358.4225 41.0352,349.3145 C23.245,337.49 21.8396,321.7319 39.7873,308.8064 C25.0541,299.3904 25.6246,281.7795 40.3725,272.8433 C18.6577,262.8551 19.3058,243.2139 39.3778,232.203 C21.6312,221.7469 23.6203,206.7798 39.067,196.0384 C17.1243,183.7261 20.0255,168.8736 38.4509,155.9411 C21.9354,146.2418 17.3048,131.4846 36.512,119.8654 C19.0242,106.2091 19.5805,92.8789 40.4827,83.4032 C16.6949,67.4683 20.1008,47.1693 42.02,32.6179 C43.5224,33.1121 44.0922,34.1038 42.8548,35.4155 " fill="#FFFFFF" style="stroke:#000000;stroke-width:1.5;"/><text fill="#000000" font-family="sans-serif" font-size="14" font-weight="bold" lengthAdjust="spacing" textLength="123" x="230.02" y="50.6131">Google Cloud Run</text><!--MD5=[ccc7773d559245da41858703b8f516c8]
cluster mcp_server--><rect fill="#FFFFFF" height="122" style="stroke:#000000;stroke-width:1.5;" width="187" x="70.02" y="75.6179"/><text fill="#000000" font-family="sans-serif" font-size="14" font-weight="bold" lengthAdjust="spacing" textLength="78" x="124.52" y="90.6131">mcp-server</text><!--MD5=[2713c44a24528e2acb75c7ee2e7cc2e2]
cluster chat--><rect fill="#FFFFFF" height="122" style="stroke:#000000;stroke-width:1.5;" width="316" x="114.02" y="280.6179"/><text fill="#000000" font-family="sans-serif" font-size="14" font-weight="bold" lengthAdjust="spacing" textLength="31" x="256.52" y="295.6131">chat</text><!--MD5=[40377559dc1ed26d7f134db8ca2c7e8f]
entity fastmcp + htmx--><rect fill="#FEFECE" height="36.2969" style="stroke:#000000;stroke-width:1.5;" width="120" x="113.02" y="137.6179"/><text fill="#000000" font-family="sans-serif" font-size="14" lengthAdjust="spacing" textLength="100" x="123.02" y="160.6131">fastmcp + htmx</text><!--MD5=[1273d9e6305ecb757378b3a75460ec5e]
entity fastapi + htmx--><rect fill="#FEFECE" height="36.2969" style="stroke:#000000;stroke-width:1.5;" width="111" x="295.52" y="342.6179"/><text fill="#000000" font-family="sans-serif" font-size="14" lengthAdjust="spacing" textLength="91" x="305.52" y="365.6131">fastapi + htmx</text><!--MD5=[e5c567fb8da6d34195e7fe71f5748ac4]
entity Google.genai--><rect fill="#FEFECE" height="36.2969" style="stroke:#000000;stroke-width:1.5;" width="103" x="157.52" y="342.6179"/><text fill="#000000" font-family="sans-serif" font-size="14" lengthAdjust="spacing" textLength="83" x="167.52" y="365.6131">Google.genai</text><!--MD5=[4b4aa12fd50f56bd13a7a0170aaccc36]
entity dashboard--><rect fill="#FFFFFF" height="36.2969" style="stroke:#000000;stroke-width:1.5;" width="86" x="454.02" y="342.6179"/><text fill="#000000" font-family="sans-serif" font-size="14" lengthAdjust="spacing" textLength="66" x="464.02" y="365.6131">dashboard</text><!--MD5=[8fc3522a43f8c7199df5e09e5bb0188e]
entity user--><ellipse cx="612.02" cy="126.1179" fill="#FEFECE" rx="8" ry="8" style="stroke:#A80036;stroke-width:1.5;"/><path d="M612.02,134.1179 L612.02,161.1179 M599.02,142.1179 L625.02,142.1179 M612.02,161.1179 L599.02,176.1179 M612.02,161.1179 L625.02,176.1179 " fill="none" style="stroke:#A80036;stroke-width:1.5;"/><text fill="#000000" font-family="sans-serif" font-size="14" lengthAdjust="spacing" textLength="30" x="597.02" y="191.6131">User</text><path d="M37.02,481.6179 L37.02,521.8836 L207.02,521.8836 L207.02,491.6179 L197.02,481.6179 L37.02,481.6179 " fill="#FBFB77" style="stroke:#A80036;stroke-width:1.0;"/><path d="M197.02,481.6179 L197.02,491.6179 L207.02,491.6179 L197.02,481.6179 " fill="#FBFB77" style="stroke:#A80036;stroke-width:1.0;"/><text fill="#000000" font-family="sans-serif" font-size="13" lengthAdjust="spacing" textLength="130" x="43.02" y="498.6848">Serves index.html on /</text><text fill="#000000" font-family="sans-serif" font-size="13" lengthAdjust="spacing" textLength="149" x="43.02" y="513.8176">Fragment served on /chat</text><!--MD5=[2288421ecba2ff0bd84773682977ba0a]
link user to dashboard--><path d="M612.26,194.8379 C611.03,214.2079 607.39,237.5879 598.02,256.6179 C581.19,290.8179 548.67,320.7579 525.07,339.4179 " fill="none" id="user-to-dashboard" style="stroke:#A80036;stroke-width:1.0;"/><polygon fill="#A80036" points="521.07,342.5379,530.6185,340.1244,525.0021,339.4495,525.677,333.833,521.07,342.5379" style="stroke:#A80036;stroke-width:1.0;"/><text fill="#000000" font-family="sans-serif" font-size="13" lengthAdjust="spacing" textLength="52" x="609.02" y="245.1848">Accesses</text><!--MD5=[a45fd57224898287424758fa49246a52]
link user to chat--><path d="M596.96,163.0979 C572.61,173.9279 523.63,197.2579 487.02,224.6179 C470.91,236.6579 473.5,248.6879 455.02,256.6179 C438.98,263.4979 154.37,253.3879 141.02,264.6179 C136.9663,268.0292 133.6225,272.0393 130.8754,276.4494 C130.1886,277.5519 129.5391,278.6794 128.9252,279.8287 C128.8484,279.9724 128.7722,280.1164 128.6966,280.2608 " fill="none" id="user-to-chat" style="stroke:#A80036;stroke-width:1.0;"/><polygon fill="#A80036" points="128.6966,280.2608,136.4169,274.1455,131.0173,275.832,129.3308,270.4324,128.6966,280.2608" style="stroke:#A80036;stroke-width:1.0;"/><text fill="#000000" font-family="sans-serif" font-size="13" lengthAdjust="spacing" textLength="80" x="498.52" y="237.6848">Interacts with</text><text fill="#000000" font-family="sans-serif" font-size="13" lengthAdjust="spacing" textLength="101" x="488.02" y="252.8176">(standalone on /)</text><!--MD5=[a07bca55845fc5e292299c1820acb9f6]
reverse link chat to dashboard--><path d="M127.5883,280.4269 C127.6548,280.2436 127.7219,280.0606 127.7895,279.8779 C127.9247,279.5126 128.0621,279.1484 128.2018,278.7856 C128.4811,278.0598 128.7694,277.3393 129.0668,276.6244 C129.6617,275.1946 130.2934,273.7876 130.9638,272.4075 C136.3269,261.3667 144.17,252.0504 155.52,246.6179 C216.06,217.6479 239.61,241.4379 306.52,246.6179 C358.32,250.6279 377.22,238.3079 422.02,264.6179 C453.39,283.0379 476.46,320.0479 488.23,342.3479 " fill="none" id="chat-backto-dashboard" style="stroke:#A80036;stroke-width:1.0;"/><polygon fill="#A80036" points="127.5883,280.4269,134.4185,273.3313,129.2939,275.7268,126.8984,270.6022,127.5883,280.4269" style="stroke:#A80036;stroke-width:1.0;"/><text fill="#000000" font-family="sans-serif" font-size="13" lengthAdjust="spacing" textLength="149" x="156.52" y="237.6848">Aggregates chat fragment</text><text fill="#000000" font-family="sans-serif" font-size="13" lengthAdjust="spacing" textLength="96" x="183.02" y="252.8176">from /chat route</text><!--MD5=[a07bca55845fc5e292299c1820acb9f6]
reverse link chat to dashboard--><path d="M127.5883,280.4269 C127.6548,280.2436 127.7219,280.0606 127.7895,279.8779 C127.9247,279.5126 128.0621,279.1484 128.2018,278.7856 C128.4811,278.0598 128.7694,277.3393 129.0668,276.6244 C129.6617,275.1946 130.2934,273.7876 130.9638,272.4075 C136.3269,261.3667 144.17,252.0504 155.52,246.6179 C216.06,217.6479 239.61,241.4379 306.52,246.6179 C358.32,250.6279 377.22,238.3079 422.02,264.6179 C453.39,283.0379 476.46,320.0479 488.23,342.3479 " fill="none" id="chat-backto-dashboard-1" style="stroke:#A80036;stroke-width:1.0;"/><polygon fill="#A80036" points="127.5883,280.4269,134.4185,273.3313,129.2939,275.7268,126.8984,270.6022,127.5883,280.4269" style="stroke:#A80036;stroke-width:1.0;"/><text fill="#000000" font-family="sans-serif" font-size="13" lengthAdjust="spacing" textLength="115" x="173.52" y="237.6848">Rewrites htmx URLs</text><text fill="#000000" font-family="sans-serif" font-size="13" lengthAdjust="spacing" textLength="140" x="161.02" y="252.8176">(client-side aggregation)</text><!--MD5=[2198cc4f4ff5714f4781c68e3268183e]
reverse link mcp_server to chat--><path d="M69.8947,162.194 C69.7978,162.264 69.7002,162.3347 69.6019,162.4059 C68.0295,163.5457 66.2856,164.8397 64.4133,166.2748 C56.9241,172.0154 47.3806,180.0154 38.5413,189.4479 C20.8625,208.3129 6,232.9079 16.02,256.6179 C28.605,286.3979 54.48,311.8154 77.5138,329.9504 C89.0306,339.0179 99.8372,346.2648 107.917,351.3261 C109.937,352.5914 111.7865,353.7201 113.4341,354.7065 C113.5371,354.7681 113.6393,354.8292 113.7407,354.8898 " fill="none" id="mcp_server-backto-chat" style="stroke:#A80036;stroke-width:1.0;"/><polygon fill="#A80036" points="69.8947,162.194,60.2571,164.2226,65.8419,165.1222,64.9422,170.7071,69.8947,162.194" style="stroke:#A80036;stroke-width:1.0;"/><text fill="#000000" font-family="sans-serif" font-size="13" lengthAdjust="spacing" textLength="70" x="17.02" y="237.6848">Connects to</text><text fill="#000000" font-family="sans-serif" font-size="13" lengthAdjust="spacing" textLength="65" x="19.52" y="252.8176">/mcp route</text><!--MD5=[6cdcc4071c2500d4b6b16837a0373013]
link chat to GMN18--><path d="M122.02,403.1038 C122.02,403.4809 122.02,403.8594 122.02,404.2391 C122.02,405.758 122.02,407.2972 122.02,408.8529 C122.02,433.7454 122.02,462.8979 122.02,481.5479 " fill="none" id="chat-GMN18" style="stroke:#A80036;stroke-width:1.0;stroke-dasharray:7.0,7.0;"/><!--MD5=[c57bb99010cf318a195d49d38c7cc8a7]
@startuml
skinparam {
  shadowing false
  componentStyle rectangle
  defaultTextAlignment center
}

actor "User" as user

cloud "Google Cloud Run" as cloud {
  component "mcp-server" as mcp_server {
    [fastmcp + htmx]
  }

  component "chat" as chat {
    [fastapi + htmx]
    [Google.genai]
  }

  component "dashboard" as dashboard {
    [fastapi + htmx]
  }
}

' Interactions
user - -> dashboard : "Accesses"
user - -> chat : "Interacts with\n(standalone on /)"
dashboard -left-> chat : "Aggregates chat fragment\nfrom /chat route"
chat -up-> mcp_server : "Connects to\n/mcp route"
dashboard -left-> chat : "Rewrites htmx URLs\n(client-side aggregation)"

note bottom of chat
Serves index.html on /
Fragment served on /chat
end note
@enduml

@startuml
skinparam {
  shadowing false
  componentStyle rectangle
  defaultTextAlignment center
}

actor "User" as user

cloud "Google Cloud Run" as cloud {
  component "mcp-server" as mcp_server {
    [fastmcp + htmx]
  }

  component "chat" as chat {
    [fastapi + htmx]
    [Google.genai]
  }

  component "dashboard" as dashboard {
    [fastapi + htmx]
  }
}

user - -> dashboard : "Accesses"
user - -> chat : "Interacts with\n(standalone on /)"
dashboard -left-> chat : "Aggregates chat fragment\nfrom /chat route"
chat -up-> mcp_server : "Connects to\n/mcp route"
dashboard -left-> chat : "Rewrites htmx URLs\n(client-side aggregation)"

note bottom of chat
Serves index.html on /
Fragment served on /chat
end note
@enduml

PlantUML version 1.2021.01(Tue Feb 02 07:55:08 GMT 2021)
(GPL source distribution)
Java Runtime: OpenJDK Runtime Environment
JVM: OpenJDK 64-Bit Server VM
Default Encoding: UTF-8
Language: en
Country: US
--></g></svg>